<?xml version="1.0" standalone="no"?><!DOCTYPE svg PUBLIC "-//W3C//DTD SVG 1.1//EN" "http://www.w3.org/Graphics/SVG/1.1/DTD/svg11.dtd"><svg t="1588146780009" class="icon" viewBox="0 0 1024 1024" version="1.1" xmlns="http://www.w3.org/2000/svg" p-id="13429" xmlns:xlink="http://www.w3.org/1999/xlink" width="200" height="200"><defs><style type="text/css"></style></defs><path d="M512 0C229.248 0 0 229.248 0 512s229.248 512 512 512 512-229.248 512-512S794.752 0 512 0zM297.056 327.68c32.16 0 57.056 23.424 59.936 51.2 2.944 24.864-7.296 46.816-35.072 60-14.624 7.296-20.48 7.328-23.424 2.944-1.44-2.944 0-5.856 2.944-8.8 26.336-21.92 26.336-39.52 23.392-64.352-1.44-16.128-13.152-26.368-24.864-26.368-51.2 0-124.32 114.08-114.08 197.504 4.384 32.16 23.424 70.24 64.384 70.24 13.152 0 27.744-4.384 40.96-10.24 21.344-11.264 34.08-20.064 46.816-34.144-3.104-37.76 30.048-87.296 78.976-87.296 21.984 0 39.52 8.736 40.96 24.864 2.912 21.92-16.096 24.832-21.92 24.832s-16.128-1.44-16.128-7.264c-1.44-5.888 13.184-2.976 11.744-16.128-1.504-8.8-10.24-11.68-19.04-11.68-30.72 0-48.256 42.4-43.904 68.736 1.504 11.744 7.328 23.424 19.072 23.424 8.736 0 21.92-13.216 26.336-32.224 2.912-13.152 14.624-21.92 24.864-21.92 4.352 0 7.264 1.44 8.736 7.296v5.888c-1.44 5.856-5.856 23.392-4.352 27.776 0 2.944 1.44 7.296 7.264 7.296 3.936 0 18.592-7.68 33.152-19.584 4.992-25.184 10.784-55.392 10.784-57.888 1.44-10.24 5.856-20.48 26.336-20.48 4.384 0 7.296 1.44 8.736 7.296v5.888l-5.792 26.336c18.976-24.864 46.816-42.4 64.352-42.4 7.328 0 13.184 4.352 13.184 11.68 0 4.384 0 11.68-2.944 19.04a474.88 474.88 0 0 0-17.568 62.88c0 5.856 1.504 11.68 8.832 11.68 7.296 0 29.216-8.8 46.752-32.16l0.288-0.16c-0.096-2.912-0.288-5.728-0.288-8.608 0-17.536 1.504-32.16 4.448-42.4 2.912-11.68 17.536-21.92 26.336-21.92 4.384 0 8.736 2.944 8.736 7.296 0 1.504 0 4.384-1.44 5.856-5.856 19.04-10.24 36.576-10.24 54.144 0 10.24 1.44 24.832 4.352 33.632 0 1.44 1.504 2.944 2.976 2.944 2.912 0 23.392-18.976 37.984-43.872-13.152-8.8-20.48-23.424-20.48-40.96 0-30.72 19.04-46.816 36.608-46.816 14.624 0 26.336 10.24 26.336 30.72 0 13.152-4.384 27.744-11.68 40.96h4.352l1.056 0.032c9.376 0 17.856-3.936 23.84-10.24a12.448 12.448 0 0 1 5.632-4.96l0.096-0.032c14.304-18.144 35.424-31.584 60.16-31.584 20.48 0 39.424 8.736 40.928 24.832 2.912 21.984-16.128 26.368-21.984 26.368l-0.096-0.096c-5.888 0-16.096-1.504-16.096-7.328s13.184-2.912 11.68-16.032c-1.44-8.8-10.24-11.744-19.04-11.744-29.28 0-48.224 38.016-43.872 68.736 1.44 11.744 7.296 24.864 18.976 24.864 8.8 0 21.984-13.152 27.808-32.16 2.912-11.68 14.624-21.92 24.864-21.92 4.384 0 7.264 1.44 8.736 7.296 0 2.944 0 8.8-5.856 27.808-7.264 13.152-7.296 20.48-5.856 26.336 1.44 11.68 7.296 20.48 13.184 24.864 1.44 1.44 2.912 4.352 2.912 4.352 0 2.944-1.44 5.888-5.856 5.888-1.44 0-2.912 0-4.384-1.504-21.92-8.736-30.72-23.392-33.664-38.016-8.736 10.24-18.976 16.096-30.72 16.096-18.976 0-37.984-17.536-40.96-39.52a68.8 68.8 0 0 1 3.328-28.192l-0.128 0.48c-8.672 5.536-18.016 8.672-26.592 8.672h-7.264c-19.072 27.808-39.552 46.848-54.176 55.584a38.048 38.048 0 0 1-16 4.448h-0.096c-2.912 0-7.296-1.504-8.736-4.448-4.064-6.496-6.656-16.736-8.224-28.448-20.512 22.496-48.864 34.336-61.984 34.336-14.624 0-23.392-8.8-24.832-23.456v-16.032c4.352-32.16 16.096-51.2 16.096-57.056a3.136 3.136 0 0 0-2.944-2.976c-10.24 0-43.872 35.168-49.76 58.592l-4.384 18.976c-2.912 13.184-16.096 21.984-24.832 21.984-4.384 0-7.328-1.504-8.8-7.328v-5.856l1.952-9.952c-18.56 13.216-37.12 21.664-45.856 21.664-13.152 0-20.48-7.328-21.92-17.568-8.8 11.68-18.976 17.568-32.16 17.568-15.008 0-29.696-10.24-36.768-25.312-10.4 11.744-22.304 23.584-36.352 32.608-20.48 13.184-43.872 23.424-71.68 23.424-24.832 0-46.816-13.184-58.496-24.864-17.568-16.096-27.776-40.96-29.28-64.384-8.736-71.68 35.104-163.84 102.4-204.8 16.128-8.736 32.224-14.624 48.288-14.624z m416.832 140.416c-4.448 0-7.328 7.328-7.328 14.624 0 11.68 5.856 24.864 13.184 32.224a72.64 72.64 0 0 0 4.352-24.864c0-14.624-5.856-21.984-10.208-21.984z" fill="#00C4CC" p-id="13430"></path></svg>