<?xml version="1.0" standalone="no"?><!DOCTYPE svg PUBLIC "-//W3C//DTD SVG 1.1//EN" "http://www.w3.org/Graphics/SVG/1.1/DTD/svg11.dtd"><svg t="1588146720149" class="icon" viewBox="0 0 1024 1024" version="1.1" xmlns="http://www.w3.org/2000/svg" p-id="10465" xmlns:xlink="http://www.w3.org/1999/xlink" width="200" height="200"><defs><style type="text/css"></style></defs><path d="M498.920727 512c0-45.288727 17.687273-88.669091 49.198546-120.692364a166.679273 166.679273 0 0 1 118.784-49.989818c44.544 0 87.272727 18.013091 118.784 49.989818A172.032 172.032 0 0 1 834.885818 512c0 45.242182-17.687273 88.669091-49.198545 120.692364a166.632727 166.632727 0 0 1-118.784 49.989818 166.632727 166.632727 0 0 1-118.784-49.989818A172.032 172.032 0 0 1 498.920727 512z" fill="#1ABCFE" p-id="10466"></path><path d="M162.909091 853.317818c0-45.242182 17.687273-88.669091 49.198545-120.645818a166.679273 166.679273 0 0 1 118.784-49.989818h168.029091v170.635636c0 45.288727-17.687273 88.669091-49.198545 120.692364A166.679273 166.679273 0 0 1 330.891636 1024a166.679273 166.679273 0 0 1-118.784-49.989818A172.078545 172.078545 0 0 1 162.909091 853.317818z" fill="#0ACF83" p-id="10467"></path><path d="M498.920727 0v341.317818h168.029091A166.632727 166.632727 0 0 0 785.687273 291.374545a172.032 172.032 0 0 0 49.198545-120.645818c0-45.288727-17.687273-88.669091-49.198545-120.692363A166.632727 166.632727 0 0 0 666.903273 0h-168.029091z" fill="#FF7262" p-id="10468"></path><path d="M162.909091 170.682182c0 45.242182 17.687273 88.669091 49.198545 120.645818A166.679273 166.679273 0 0 0 330.938182 341.317818h168.029091V0h-168.029091c-44.544 0-87.272727 17.966545-118.784 49.989818A172.032 172.032 0 0 0 162.909091 170.682182z" fill="#F24E1E" p-id="10469"></path><path d="M162.909091 512c0 45.242182 17.687273 88.669091 49.198545 120.692364a166.632727 166.632727 0 0 0 118.784 49.989818h168.029091V341.317818h-168.029091c-44.544 0-87.272727 18.013091-118.784 49.989818A172.032 172.032 0 0 0 162.909091 512z" fill="#A259FF" p-id="10470"></path></svg>