<?xml version="1.0" standalone="no"?><!DOCTYPE svg PUBLIC "-//W3C//DTD SVG 1.1//EN" "http://www.w3.org/Graphics/SVG/1.1/DTD/svg11.dtd"><svg t="1588144964733" class="icon" viewBox="0 0 1024 1024" version="1.1" xmlns="http://www.w3.org/2000/svg" p-id="3055" xmlns:xlink="http://www.w3.org/1999/xlink" width="200" height="200"><defs><style type="text/css"></style></defs><path d="M524.08911 916.21c-149.39 1.237-284.473-6.841-418.276-31.83C38.37211 871.794-1.05189 826.24 0.48311 762.823c0.456-17.991 6.87-27.335 25.26-27.207 14.506 0.1 29.013 0.1 43.49 0.2 16.883 0.127 29.185 4.735 34.419 23.864 7.11 25.884 27.818 37.646 53.176 41.188 63.517 8.846 127.104 16.924 191.218 20.622 101.334 5.888 202.624 8.234 304.014 0.455 73.216-5.618 146.347-11.449 218.824-23.865 19.086-3.271 34.66-12.117 39.068-30.748 6.884-29.07 25.813-32.57 51.115-32.313 64.839 0.71 66.986 2.503 50.062 64.142-10.468 38.258-31.773 65.735-72.107 77.739-63.004 18.773-128.142 24.462-192.782 30.506-78.194 7.31-156.871 12.7-222.151 8.818zM525.34011 75.59c115.556-7.168 242.347 6.656 368.171 26.88 74.382 11.947 110.18 30.649 125.895 118.713 4.224 23.609-5.504 33.266-27.99 32.555-14.506-0.455-28.984-2.56-43.434-2.319-17.92 0.313-28.771-6.5-35.129-23.893-8.561-23.609-27.733-35.271-52.053-38.5-149.177-19.768-298.951-32.227-449.38-24.135-86.755 4.651-173.184 16.043-259.64 25.344-20.509 2.205-38.898 12.616-45.384 33.21-7.907 25.087-24.504 30.833-47.644 28.7a253.98 253.98 0 0 0-31.076-0.882C7.69411 251.89 0.51211 242.532 0.62611 222.848c0.327-54.23 33.792-99.271 86.186-110.89C227.14311 80.81 369.53611 72.091 525.34011 75.59zM411.73311 497.607c0 41.358 0.484 82.73-0.256 124.075-0.256 14.307-2.417 28.8-5.646 42.766-4.096 17.75-31.73 36.836 7.609 50.02 9.202 3.086 6.784 22.727 2.987 34.787-3.712 11.904-15.062 14.962-25.174 14.208-29.24-2.233-61.553 2.19-79.587-30.194-5.305-9.529-14.734-10.154-24.278-10.524-10.34-0.398-20.75-0.47-30.933-1.963-95.673-14.051-106.795-26.95-106.809-122.95 0-80.627-0.213-161.28 0.128-241.92 0.17-43.208 16.384-63.617 57.657-76.9 51.229-16.484 101.973-14.223 152.334 2.915 34.987 11.918 50.503 33.949 51.542 76.117 1.137 46.493 0.241 93.042 0.241 139.563h0.185z m-105.258-0.611h0.1c0-44.416-0.143-88.832 0.07-133.263 0.071-18.346-2.915-32.924-26.396-32.981-21.504-0.057-29.383 10.866-29.355 30.805 0.142 88.847 0.043 177.693 0.142 266.525 0 19.498 5.69 36.238 28.587 36.295 24.32 0.085 26.695-18.631 26.78-37.22 0.2-43.377 0.072-86.755 0.072-130.161z m433.735-75.264c13.084-41.586 24.69-73.643 33.038-106.54 6.4-25.244 19.058-34.986 45.682-34.9 79.872 0.284 69.148 4.522 47.73 64.37-18.802 52.522-34.56 106.382-57.23 157.198-23.197 52.024-15.36 105.4-17.608 158.634-0.754 17.664 7.438 40.733-15.502 49.038-24.704 8.96-50.987 3.4-76.089-2.773-6.187-1.522-7.879-9.031-8.675-15.388-0.285-2.048-0.754-4.182-0.47-6.173 19.328-131.242-46.15-242.844-84.053-360.76-12.445-38.685-10.368-43.222 29.838-43.578 9.33-0.1 18.73 0.783 27.933-0.17 22.243-2.29 34.318 7.082 40.334 28.729 9.642 34.73 21.362 68.878 35.072 112.313z m282.425 77.056c0 58.95-0.57 117.902 0.27 176.839 0.355 24.064-6.841 35.64-33.45 36.081-67.67 1.124-67.67 2.134-67.67-66.432-0.014-108.6 0.754-217.173-0.54-325.745-0.37-29.91 10.211-39.766 39.708-39.282 61.54 0.995 61.554-0.242 61.54 60.302v158.237h0.142z m-459.193 0.839c0 60.956-0.797 121.955 0.455 182.897 0.427 20.239-6.585 27.45-26.169 28.843-76.132 5.447-76.089 5.888-76.089-69.547 0-105.4-0.043-210.816 0-316.245 0.014-41.557 2.916-44.43 43.563-44.757 6.2-0.043 12.487 0.626 18.63-0.1 29.654-3.413 40.236 9.43 39.425 39.069-1.678 59.904-0.498 119.893-0.498 179.84h0.683zM96.37011 559.217c-0.043 40.235-0.654 80.499 0.199 120.719 0.47 22.471-9.06 30.734-31.289 31.573C0.37011 713.927 0.37011 714.567 0.37011 649.074c0-68.125 0.768-136.235-0.356-204.288-0.426-25.358 8.747-34.532 34.205-34.631 73.685-0.228 61.88-4.935 62.165 59.306 0.142 29.91 0.014 59.819-0.014 89.743z m0.042-228.28c-0.014 50.489-0.014 50.489-45.568 50.489-50.545 0-50.545 0-50.488-51.542 0.042-49.18 0.042-49.18 49.92-49.109 46.165 0.085 46.165 0.085 46.136 50.162z" fill="#42BD56" p-id="3056"></path></svg>