<?xml version="1.0" standalone="no"?><!DOCTYPE svg PUBLIC "-//W3C//DTD SVG 1.1//EN" "http://www.w3.org/Graphics/SVG/1.1/DTD/svg11.dtd"><svg t="1588147101731" class="icon" viewBox="0 0 1024 1024" version="1.1" xmlns="http://www.w3.org/2000/svg" p-id="14767" xmlns:xlink="http://www.w3.org/1999/xlink" width="200" height="200"><defs><style type="text/css"></style></defs><path d="M146.32 152.23c-0.45 23.17 35.78 29.87 52.65 32.67 70.66 11.7 141.49 26.67 208.03 53.8 28.78 11.74 53.96 21.67 74.57 46.45 18.8 22.6 30.55 51.28 31.6 80.77 3.18 89.93-82.08 151.12-166.1 143C226.65 497.29 168.5 387.32 152.5 278.2c-6.1-41.67-7.45-83.96-6.18-125.97zM706.46 134.13c-3.5-5.64-57.29 38.93-60.58 41.86-60.12 53.56-112.03 130.03-93.14 214.48 7.52 33.64 29.77 71.89 63.39 84.7 36.7 13.98 78.47-1.69 104.36-29.33 43.9-46.85 53.25-111.36 41.92-172.69-9.11-49.3-29.61-96.54-55.95-139.02zM111.25 583.73c4.98 1.25 22.86-9.92 28.18-11.92 11.45-4.3 23.1-8.06 34.92-11.19 24.06-6.37 49.1-10.45 74.06-9.62 32.77 1.09 65.86 13.5 87.1 39.28 41.66 50.56 19.86 126.32-50 131.06-55.38 3.76-98.49-32.08-124.54-77.47-11.26-19.6-25.14-54-49.72-60.14zM912.44 512.09c-63.98-37.07-171.93-28.35-224.07 25-24.02 24.58-31.4 63.56-15.72 94.55 19.43 38.38 65.08 49.21 104.42 40 48.41-11.34 79.95-51.28 102.75-92.93 2.84-5.18 36.47-64.39 32.62-66.62z" p-id="14768" fill="#ff8533"></path><path d="M458.81 514.11s-60.58 20.73-46.24 47.83c20.87 39.42 31.96 73.84 31.09 120.37-2.89 154.59-157.02 170.26-155.45 170.86 1.6 0.61 0 33.04 0 37.2h393.8v-46.24c-34.77 0-69.52 2.38-104.27 1.03-11.12-0.43-22.84-3.01-30.74-10.84-15.68-15.54-14.86-49.21-14.13-69.59 0.97-27.09 7.84-53.79 20.8-77.64 70.15-129.14 74.92-74.73 66.16-139.5-8.99-66.46-34.82-3.76-80.51 11.96-19.83 6.82-47.03-48.63-80.51-45.44z" p-id="14769" fill="#ff8533"></path></svg>