<?xml version="1.0" standalone="no"?><!DOCTYPE svg PUBLIC "-//W3C//DTD SVG 1.1//EN" "http://www.w3.org/Graphics/SVG/1.1/DTD/svg11.dtd"><svg t="1588146595153" class="icon" viewBox="0 0 1024 1024" version="1.1" xmlns="http://www.w3.org/2000/svg" p-id="8528" xmlns:xlink="http://www.w3.org/1999/xlink" width="200" height="200"><defs><style type="text/css"></style></defs><path d="M959.445292 862.225843c38.558128 43.498852 6.246304 133.850105-74.735493 94.088796-167.319032-82.174739-200.485883 60.133477-374.071698 65.217559-173.596055 5.094322-211.422035-147.387178-373.677464-65.217559-80.495404 40.749454-113.303861-50.589943-74.750853-94.088796 53.800134-60.665949 104.461757-130.138162 105.506221-384.147703-0.445433-8.125315 0-11.04367 0-19.271384 0-103.340494 35.977688-197.244972 94.626387-266.732546-5.913509-6.891414-12.123974-15.856397-18.267879-26.213998a61.346898 61.346898 0 0 1-1.658855-2.969554 340.239257 340.239257 0 0 1-16.102153-31.164962 370.523592 370.523592 0 0 1-13.444913-33.996278c-0.455673-1.443818-0.993265-2.887636-1.372139-4.336573a303.662539 303.662539 0 0 1-6.082467-21.862065C197.677785 37.903137 199.121603 9.113819 218.408347 0.947544c10.941272-4.638649 24.160909 8.46323 39.495073 27.744854 0.537592 0.686069 1.146862 1.382379 1.745894 2.129887 0.691189 0.844787 1.372139 1.684454 2.053088 2.590681 10.019686 12.953401 21.114556 28.118608 33.177091 42.142073 0.931826 1.059824 1.827812 2.135007 2.749398 3.20507 0.527352 0.604151 1.059824 1.203182 1.587175 1.827812 14.602016 16.419588 30.60177 30.842407 47.989024 37.974457 49.105166-30.217776 105.470381-47.405352 165.42466-47.405352 58.443903 0 113.493298 16.347909 161.728078 45.173067 15.492882-7.679882 29.838902-20.87904 43.038059-35.737052 0.537592-0.62975 1.075183-1.228781 1.597416-1.832932l2.734038-3.20507c12.083015-14.028585 23.172764-29.183552 33.18221-42.142073 0.691189-0.906226 1.372139-1.745893 2.063329-2.590681 0.599031-0.747509 1.208301-1.443818 1.740773-2.129887 15.339285-19.281624 28.548682-32.383503 39.500194-27.744854 19.276504 8.161155 20.735682 36.955593 12.98412 70.572997a298.419739 298.419739 0 0 1-6.082466 21.867184c-0.368634 1.448938-0.906226 2.892756-1.361899 4.336573a379.514174 379.514174 0 0 1-13.434674 33.996278 342.829938 342.829938 0 0 1-16.112393 31.164962c-0.522232 0.993265-1.059824 1.97117-1.669094 2.969555-4.710328 7.935878-9.446255 15.052569-14.079784 21.047996C819.743116 256.882175 857.543496 352.880702 857.543496 458.811876c0 6.041507-0.02048 6.246304-0.266236 12.231492 0.122878 259.411058 47.917344 330.004534 102.168032 391.187595z" fill="#0692FF" p-id="8529"></path><path d="M510.863377 640.374529c112.67923 0 203.982789-92.189305 203.982789-205.87716 0-39.295397-10.931032-75.994993-29.96178-107.282833 0-0.081919-0.071679-0.153598-0.143358-0.240637-35.747291-58.955895-100.227582-98.261532-173.872531-98.261531-112.668991 0-204.054468 92.117626-204.054467 205.785001a206.368672 206.368672 0 0 0 53.027026 138.432435c37.354947 41.389445 91.124361 67.444725 151.022321 67.444725z" fill="#FFFFFF" p-id="8530"></path><path d="M554.223992 290.089986c57.030805 0 103.268815 46.632244 103.268815 104.1904 0 57.532557-46.23801 104.169921-103.268815 104.169921-57.030805 0-103.268815-46.637364-103.268815-104.169921 0-57.558156 46.23801-104.190401 103.268815-104.1904z" fill="#293D50" p-id="8531"></path></svg>