<?xml version="1.0" standalone="no"?><!DOCTYPE svg PUBLIC "-//W3C//DTD SVG 1.1//EN" "http://www.w3.org/Graphics/SVG/1.1/DTD/svg11.dtd"><svg t="1588146384118" class="icon" viewBox="0 0 1024 1024" version="1.1" xmlns="http://www.w3.org/2000/svg" p-id="7102" xmlns:xlink="http://www.w3.org/1999/xlink" width="200" height="200"><defs><style type="text/css"></style></defs><path d="M910.46 699.7c-31.25 54.78-90.22 91.8-157.67 91.8H273.83c-69.26 0-129.56-39.02-160.11-96.23l-46.53 22.46c38.94 74.47 116.94 125.41 206.64 125.41h478.96c87.89 0 164.57-48.92 204.25-120.95l-46.58-22.49zM109.33 337.52c28.88-61.96 91.75-105.02 164.5-105.02h478.96c70.69 0 132.05 40.65 161.97 99.79l44.81-25.76c-38.89-74.61-116.98-125.67-206.77-125.67H273.83c-91.86 0-171.46 53.43-209.39 130.84l44.89 25.82zM242.15 591.4h-56.7c-12.15 0-22-9.85-22-22V454.6c0-12.15 9.85-22 22-22h56.7c12.15 0 22 9.85 22 22v114.8c0 12.15-9.85 22-22 22zM540.46 592.69h-56.7c-12.15 0-22-9.85-22-22V455.9c0-12.15 9.85-22 22-22h56.7c12.15 0 22 9.85 22 22v114.79c0 12.15-9.85 22-22 22z" p-id="7103" fill="#d81e06"></path></svg>