<?xml version="1.0" standalone="no"?><!DOCTYPE svg PUBLIC "-//W3C//DTD SVG 1.1//EN" "http://www.w3.org/Graphics/SVG/1.1/DTD/svg11.dtd"><svg t="1588146894353" class="icon" viewBox="0 0 1024 1024" version="1.1" xmlns="http://www.w3.org/2000/svg" p-id="13675" xmlns:xlink="http://www.w3.org/1999/xlink" width="200" height="200"><defs><style type="text/css"></style></defs><path d="M917.333333 896c0 12.8-8.533333 21.333333-21.333333 21.333333H128c-12.8 0-21.333333-8.533333-21.333333-21.333333V128c0-12.8 8.533333-21.333333 21.333333-21.333333h768c12.8 0 21.333333 8.533333 21.333333 21.333333v768z" fill="#008EDB" p-id="13676"></path><path d="M189.866667 518.4c0-53.333333 10.666667-93.866667 34.133333-125.866667 17.066667-25.6 42.666667-42.666667 74.666667-55.466666 21.333333-8.533333 44.8-12.8 68.266666-12.8s44.8 4.266667 66.133334 12.8c32 10.666667 55.466667 29.866667 74.666666 55.466666 23.466667 32 36.266667 74.666667 36.266667 125.866667 0 53.333333-10.666667 93.866667-34.133333 125.866667-17.066667 25.6-42.666667 42.666667-74.666667 55.466666-21.333333 8.533333-44.8 12.8-68.266667 12.8s-44.8-4.266667-66.133333-12.8c-32-10.666667-55.466667-29.866667-74.666667-55.466666-25.6-32-36.266667-74.666667-36.266666-125.866667z m76.8 0c0 46.933333 10.666667 81.066667 34.133333 102.4 17.066667 17.066667 38.4 25.6 66.133333 25.6 25.6 0 46.933333-8.533333 66.133334-25.6 23.466667-21.333333 34.133333-55.466667 34.133333-102.4 0-46.933333-10.666667-81.066667-34.133333-102.4-17.066667-17.066667-38.4-25.6-66.133334-25.6-25.6 0-46.933333 8.533333-66.133333 25.6-23.466667 21.333333-34.133333 55.466667-34.133333 102.4zM844.8 514.133333v187.733334h-72.533333v-166.4c0-14.933333-2.133333-27.733333-6.4-34.133334-6.4-12.8-21.333333-19.2-40.533334-19.2-17.066667 0-29.866667 6.4-40.533333 17.066667s-14.933333 25.6-14.933333 46.933333v155.733334H597.333333V428.8h68.266667V469.333333c10.666667-17.066667 23.466667-29.866667 36.266667-36.266666s27.733333-10.666667 44.8-10.666667c27.733333 0 51.2 8.533333 68.266666 23.466667 21.333333 17.066667 29.866667 38.4 29.866667 68.266666z" fill="#FFFFFF" p-id="13677"></path></svg>