<?xml version="1.0" standalone="no"?><!DOCTYPE svg PUBLIC "-//W3C//DTD SVG 1.1//EN" "http://www.w3.org/Graphics/SVG/1.1/DTD/svg11.dtd"><svg t="1588145198838" class="icon" viewBox="0 0 1024 1024" version="1.1" xmlns="http://www.w3.org/2000/svg" p-id="4464" xmlns:xlink="http://www.w3.org/1999/xlink" width="200" height="200"><defs><style type="text/css"></style></defs><path d="M316.928 44.032c30.208-2.56 59.904 2.56 87.552 13.824 62.976 22.016 122.88 49.152 180.224 79.36 98.304 51.712 190.976 112.128 281.088 177.664 38.4 30.208 79.36 59.904 109.056 98.304 18.944 22.016 32.768 51.712 30.208 81.92-5.632 35.328-27.136 65.536-51.712 90.112-98.304 98.304-204.8 188.416-322.048 262.144-59.904 38.4-122.88 71.168-188.416 95.744-40.96 16.384-87.552 30.208-131.072 24.576-27.136-2.56-51.712-13.824-71.168-35.328-16.384-18.944-24.576-40.96-30.208-65.536v-2.56c18.944-5.632 38.4-10.752 59.904-16.384 81.92-22.016 163.84-57.344 240.128-95.744 81.92-43.52 161.28-92.672 235.008-150.016 24.576-18.944 51.712-38.4 62.976-68.096 10.752-22.016 8.192-49.152-5.632-68.096-13.824-24.576-35.328-43.52-54.784-59.904-24.576-18.944-51.712-38.4-79.36-51.712-51.712-32.768-106.496-59.904-161.28-90.112-62.976-32.768-128.512-59.904-194.048-81.92-30.208-8.192-59.904-18.944-90.112-27.136 2.56-13.824 8.192-27.136 13.824-40.96 16.896-39.936 47.104-64.512 79.872-70.144z" fill="#10ABF2" p-id="4465"></path><path d="M133.632 156.16c27.136-13.824 59.904-10.752 90.112-5.632-10.752 40.96-16.384 84.48-22.016 125.44 0 18.944-2.56 35.328-5.632 54.784-2.56 22.016-2.56 46.592-5.632 68.096 0 27.136-2.56 51.712-2.56 79.36-2.56 24.576 0 51.712-2.56 76.288 0 38.4 0 76.288 2.56 114.688 2.56 57.344 5.632 117.248 13.824 174.592v8.192c-27.136 5.632-59.904 10.752-84.48-8.192s-32.768-51.712-40.96-81.92c-13.824-90.112-22.016-188.416-22.016-286.72 0-51.712 5.632-100.864 13.824-150.016 5.632-40.96 13.824-81.92 27.136-120.32 5.632-21.504 19.456-40.448 38.4-48.64z" fill="#FF8F21" p-id="4466"></path><path d="M223.744 147.968h5.632c30.208 8.192 59.904 18.944 90.112 27.136 65.536 22.016 131.072 51.712 194.048 81.92 54.784 30.208 109.056 57.344 161.28 90.112 27.136 16.384 54.784 32.768 79.36 51.712 22.016 16.384 40.96 35.328 54.784 59.904 10.752 18.944 13.824 46.592 5.632 68.096-13.824 30.208-40.96 49.152-62.976 68.096-76.288 59.904-155.648 109.056-237.568 153.088-76.288 40.96-155.648 73.728-240.128 95.744-18.944 5.632-38.4 10.752-59.904 16.384-2.56 0-8.192 2.56-10.752 2.56 0-5.632 0-10.752-2.56-16.384-8.192-57.344-10.752-117.248-13.824-174.592-2.56-38.4-2.56-76.288-2.56-114.688 0-24.576 0-51.712 2.56-76.288 0-27.136 2.56-51.712 2.56-79.36 2.56-22.016 2.56-46.592 5.632-68.096 2.56-18.944 2.56-35.328 5.632-54.784 6.656-43.008 12.288-87.04 23.04-130.56m112.128 153.088c-10.752 2.56-16.384 16.384-16.384 27.136v338.432c0 10.752 2.56 24.576 10.752 27.136 10.752 2.56 22.016 0 30.208-8.192l229.376-163.84c10.752-8.192 18.944-18.944 18.944-32.768s-10.752-22.016-22.016-30.208c-76.288-51.2-155.136-103.424-231.936-155.136-2.56 0-10.752-5.632-18.944-2.56z" fill="#7DE621" p-id="4467"></path></svg>