<?xml version="1.0" standalone="no"?><!DOCTYPE svg PUBLIC "-//W3C//DTD SVG 1.1//EN" "http://www.w3.org/Graphics/SVG/1.1/DTD/svg11.dtd"><svg t="1588145024190" class="icon" viewBox="0 0 1024 1024" version="1.1" xmlns="http://www.w3.org/2000/svg" p-id="686" xmlns:xlink="http://www.w3.org/1999/xlink" width="200" height="200"><defs><style type="text/css"></style></defs><path d="M740.3 556.4c0.1-0.1 0.1-0.2 0.2-0.3 0.5-0.8 0.9-1.7 1.4-2.5 0.2-0.4 0.4-0.8 0.7-1.2 0.2-0.3 0.3-0.7 0.5-1 5.5-10.8 8.5-22.7 8.6-34.8v-1.2-1.2c-0.2-12.1-3.1-24-8.6-34.8-0.2-0.3-0.3-0.7-0.5-1-0.2-0.4-0.4-0.8-0.7-1.2-0.5-0.8-0.9-1.7-1.4-2.5-0.1-0.1-0.1-0.2-0.2-0.3-1.5-2.5-3.1-4.9-4.9-7.2v-0.1c-2.4-3.2-5.1-6.2-8-9l-0.2-0.2c-1.6-1.5-3.3-3-5-4.4-0.4-0.3-0.7-0.6-1.1-0.9l-3.6-2.7c-0.3-0.2-0.6-0.4-0.8-0.6l-247-165.5c-17.6-11.8-38.8-16.1-59.6-12-20.8 4.1-38.8 16.1-50.6 33.7-24.4 36.4-14.7 85.9 21.7 110.3l148.5 99.6L381.1 615c-36.4 24.4-46.1 73.9-21.7 110.3 11.8 17.6 29.8 29.6 50.6 33.7 20.8 4.1 42-0.2 59.6-12l246.9-165.6c0.3-0.2 0.6-0.4 0.8-0.6l1.5-1c0.7-0.5 1.5-1.1 2.2-1.6 0.4-0.3 0.7-0.6 1.1-0.9 1.8-1.4 3.4-2.9 5-4.4l0.2-0.2c2.9-2.8 5.6-5.8 8-9v-0.1c1.9-2.3 3.5-4.7 5-7.2z m0 0" fill="#FF4A4A" p-id="687"></path><path d="M975.6 317.5c-25.2-59.6-61.2-113-107.2-158.9-45.9-45.9-99.4-81.9-158.9-107.1-61.7-26.1-127.2-39.3-194.7-39.3-84.7 0-168.4 21.6-242.1 62.4C201.4 114 140.2 171 95.6 239.4c-52.9 81.2-80.9 175.5-80.9 272.8 0 67.5 13.2 133 39.3 194.7 25.2 59.6 61.2 113 107.1 158.9C207 911.7 260.5 947.7 320 973c61.7 26.1 127.2 39.3 194.7 39.3 81.6 0 162.5-20.1 234.2-58.1 69.3-36.8 129.8-90.2 175-154.4 59.5-84.5 90.9-184 90.9-287.6 0.2-67.5-13.1-133-39.2-194.7zM514.8 853.9c-188.4 0-341.7-153.3-341.7-341.7 0-66.5 19.1-130.9 55.2-186.3 63.4-97.3 170.6-155.4 286.5-155.4 188.4 0 341.7 153.3 341.7 341.7 0 70.8-21.5 138.8-62.1 196.4-63.9 91-168.5 145.3-279.6 145.3z m0 0" fill="#38CEFF" p-id="688"></path><path d="M904.9 689.4c-35.8-25.2-85.2-16.6-110.3 19.2-25.2 35.8-16.6 85.2 19.2 110.3 13.9 9.8 29.8 14.4 45.5 14.4 24.9 0 49.4-11.7 64.8-33.6 25.1-35.7 16.5-85.1-19.2-110.3zM118.7 349c36.6 23.9 85.7 13.5 109.6-23.1 23.9-36.6 13.5-85.7-23.1-109.6-36.6-23.9-85.7-13.5-109.6 23.1C71.7 276 82.1 325.1 118.7 349z m0 0" fill="#0B99FF" p-id="689"></path><path d="M751.7 514.2c-0.2-12.1-3.2-24-8.6-34.8-0.2-0.3-0.3-0.7-0.5-1-0.2-0.4-0.4-0.8-0.7-1.2-0.5-0.8-0.9-1.7-1.4-2.5-0.1-0.1-0.1-0.2-0.2-0.3-0.7-1.1-1.3-2.2-2.1-3.2-0.9-1.4-1.9-2.7-2.9-4v-0.1c-2.5-3.2-5.1-6.2-8-9l-0.2-0.2c-1.6-1.5-3.3-3-5-4.4-0.4-0.3-0.7-0.6-1.1-0.9-0.7-0.6-1.4-1.1-2.2-1.6-0.5-0.3-1-0.7-1.5-1-13.3-9.2-29-14.1-45.2-14-15.8 0-31.1 4.7-44.2 13.5l-98.4 66 98.4 66c13.1 8.8 28.4 13.5 44.2 13.5 16.4 0 32.1-5 45.2-14l1.5-1c0.7-0.5 1.5-1.1 2.2-1.6 0.4-0.3 0.7-0.6 1.1-0.9 1.7-1.4 3.4-2.9 5-4.4l0.2-0.2c2.9-2.8 5.5-5.7 8-9v-0.1c1-1.3 1.9-2.6 2.9-4 0.7-1.1 1.4-2.2 2.1-3.2 0.1-0.1 0.1-0.2 0.2-0.3 0.5-0.8 1-1.7 1.4-2.5 0.2-0.4 0.4-0.8 0.7-1.2 0.2-0.3 0.3-0.7 0.5-1 5.5-10.8 8.4-22.7 8.6-34.8v-1.2-1.4z m0 0" fill="#F5001A" p-id="690"></path></svg>